PathFileType	4	(X/Y/Z)	E:\Qualisys_Data\Carbon_Farble_Plate\Data\Amateur_Runner\S14\T1\S14T1V22_c3d.trc
DataRate	CameraRate	NumFrames	NumMarkers	Units	OrigDataRate	OrigDataStartFrame	OrigNumFrames
200.000000	200.000000	4	39	mm	200.000000	38	304
Frame#	Time	LSHO			RSHO			LICST			RICST			LASIS			LHEEL			RASIS			LTROC			RTROC			SACR			LTH1			LSK4			LTH2			LTH3			RHM5			LSK2			LTH4			RTH1			LTOE			RTH2			RTH3			RTH4			LLEP			RLEP			LSK1			LSK3			RSK1			LHM5			RSK2			LFT1			RSK3			RSK4			LLME			RLME			RTOE			RHEEL			RFT1			RFT2			LFT2			
		X1	Y1	Z1	X2	Y2	Z2	X3	Y3	Z3	X4	Y4	Z4	X5	Y5	Z5	X6	Y6	Z6	X7	Y7	Z7	X8	Y8	Z8	X9	Y9	Z9	X10	Y10	Z10	X11	Y11	Z11	X12	Y12	Z12	X13	Y13	Z13	X14	Y14	Z14	X15	Y15	Z15	X16	Y16	Z16	X17	Y17	Z17	X18	Y18	Z18	X19	Y19	Z19	X20	Y20	Z20	X21	Y21	Z21	X22	Y22	Z22	X23	Y23	Z23	X24	Y24	Z24	X25	Y25	Z25	X26	Y26	Z26	X27	Y27	Z27	X28	Y28	Z28	X29	Y29	Z29	X30	Y30	Z30	X31	Y31	Z31	X32	Y32	Z32	X33	Y33	Z33	X34	Y34	Z34	X35	Y35	Z35	X36	Y36	Z36	X37	Y37	Z37	X38	Y38	Z38	X39	Y39	Z39	

39	0.19	-1941.64990234375	1397.741455078125	-487.3926086425781	-1892.86669921875	1381.925659179688	-182.9980010986328	-1993.432739257812	949.3282470703124	-477.16845703125	-1960.670043945312	955.1536254882812	-199.2173309326172	-1951.175415039062	899.8333129882812	-453.6898803710938	-2244.397705078125	515.55517578125	-372.1386108398438	-1935.724487304688	913.9037475585938	-218.7934875488281	-2086.351318359375	822.0202026367188	-483.3284606933594	-2084.511962890625	870.3038330078125	-171.4610748291016	-2114.053466796875	964.1238403320312	-336.8673400878906	-1898.281494140625	649.539306640625	-503.1051330566406	-2040.951049804688	518.96875	-453.744140625	-1961.299926757812	610.2999877929688	-475.3306579589844	-1837.722778320312	570.9968872070312	-486.0267944335938	-2139.090087890625	78.63314819335938	-203.5932159423828	-1945.2763671875	528.8636474609375	-475.3091430664062	-1904.056030273438	535.1045532226562	-460.9037170410156	-1945.715942382812	623.6131591796875	-169.5656585693359	-2211.113037109375	257.1741943359375	-397.1940307617188	-2023.146362304688	626.7738647460938	-164.7402191162109	-1946.277221679688	526.7333374023438	-203.0445404052734	-2028.737060546875	527.3573608398438	-188.2067565917969	-1843.822265625	498.9394836425781	-480.0272521972656	-2010.513305664062	454.4369812011719	-201.6991271972656	-1933.2470703125	447.4440307617188	-466.9656982421875	-2033.1611328125	438.5293273925781	-447.8583374023438	-2041.677001953125	332.7359924316406	-204.8385772705078	-2234.2900390625	323.0048828125	-456.8075256347656	-2113.9775390625	377.7021484375	-192.2059631347656	-2267.9833984375	498.3098449707031	-343.7819213867188	-2104.428466796875	252.0127868652344	-223.6970672607422	-2165.8642578125	298.6408996582031	-208.4411773681641	-2204.080810546875	462.7281799316406	-430.9005737304688	-2245.3251953125	146.7547149658203	-236.1176300048828	-2067.54931640625	67.65620422363281	-268.5815734863281	-2314.531005859375	131.0327453613281	-291.3169860839844	-2307.634521484375	95.63465118408205	-316.1075134277344	-2319.322509765625	110.7690200805664	-261.4497985839844	-2270.116943359375	509.6199035644531	-400.9411315917969
40	0.195	-1924.325561523438	1400.954833984375	-488.17529296875	-1872.018188476562	1385.335327148438	-185.6394195556641	-1974.349609375	952.6364135742188	-477.5767822265625	-1940.291015625	957.770751953125	-198.7681121826172	-1931.13720703125	902.6842651367188	-453.3617858886719	-2219.078369140625	504.4466552734375	-372.775634765625	-1915.7900390625	916.004150390625	-217.2598724365234	-2065.070068359375	826.55322265625	-484.9583129882812	-2065.4052734375	872.5028076171875	-171.7172088623047	-2093.46875	967.1236572265624	-336.5853576660156	-1874.20654296875	656.3926391601562	-503.5216979980469	-2014.56201171875	517.538818359375	-454.048828125	-1936.265625	615.7859497070312	-475.875244140625	-1811.855590820312	579.6927490234375	-485.7038879394531	-2138.33544921875	79.56194305419922	-203.9498291015625	-1918.479370117188	531.7894897460938	-474.9865417480469	-1876.619873046875	541.0458984375	-459.9398498535156	-1934.237670898438	623.5463256835938	-170.0756683349609	-2169.078369140625	250.4994201660156	-397.2601318359375	-2011.609741210938	629.3970336914062	-166.1851196289062	-1938.459716796875	526.3854370117188	-203.0987548828125	-2021.201904296875	530.1148071289062	-189.5236206054688	-1815.704711914062	506.8421325683594	-478.7150268554688	-2003.60791015625	456.0168762207031	-201.7202911376953	-1903.9716796875	451.5724792480469	-466.8570251464844	-2003.23779296875	437.9257507324219	-447.9013671875	-2036.917724609375	335.031982421875	-204.9756927490234	-2197.443115234375	313.1045227050781	-457.1032409667969	-2108.84326171875	380.9252014160156	-192.8071594238281	-2237.431640625	487.2566833496094	-341.2098388671875	-2101.284423828125	254.9860992431641	-223.3013610839844	-2162.691162109375	302.8916320800781	-208.9903717041016	-2175.28955078125	453.7812805175781	-431.3645324707031	-2242.9033203125	150.7307891845703	-235.9903869628906	-2067.16796875	67.88645935058594	-268.7491760253906	-2312.0048828125	136.985107421875	-290.91357421875	-2305.70166015625	101.6769714355469	-315.8900451660156	-2317.35546875	117.4435043334961	-261.3738403320312	-2242.946044921875	496.3792419433594	-400.7384948730469
41	0.2	-1907.468017578125	1404.793212890625	-488.8934020996094	-1849.892333984375	1388.88623046875	-187.2164459228516	-1955.86328125	956.289794921875	-477.9633483886719	-1919.683837890625	960.2384643554688	-198.6716003417969	-1911.64453125	906.0238037109376	-452.6403503417969	-2193.279052734375	492.7007446289062	-373.1997375488281	-1895.100219726562	918.4527587890624	-216.3807373046875	-2043.686767578125	831.143798828125	-486.4117431640625	-2044.920532226562	875.4834594726562	-171.5852355957031	-2073.267578125	970.3347778320312	-336.5898132324219	-1849.5390625	663.2484130859375	-503.06494140625	-1988.255249023438	516.1682739257812	-454.5844116210938	-1911.153930664062	621.3178100585938	-476.8634033203125	-1785.735595703125	586.8889770507812	-485.1358642578125	-2137.572021484375	80.17263793945312	-204.3910064697266	-1893.28466796875	535.07275390625	-475.0237121582031	-1850.127075195312	546.84326171875	-459.5237426757812	-1922.004638671875	623.6715087890625	-170.7851867675781	-2129.3544921875	241.5063934326172	-397.5738830566406	-1998.923950195312	632.9812622070312	-166.5429992675781	-1928.67333984375	527.5089111328125	-203.7994079589844	-2011.410400390625	533.5183715820312	-189.4906005859375	-1788.164672851562	513.7894897460938	-479.03271484375	-1997.371948242188	458.7942199707031	-202.2602386474609	-1874.408447265625	455.1943054199219	-466.5606994628906	-1973.099243164062	436.9886169433594	-447.8737487792969	-2032.39501953125	337.9742736816406	-204.8908843994141	-2160.477294921875	303.1138610839844	-457.6175537109375	-2103.2216796875	384.6645202636719	-193.1852569580078	-2210.978271484375	474.2298889160156	-343.9415588378906	-2097.797119140625	258.4313659667969	-223.4124603271484	-2158.74169921875	307.5383911132812	-209.5322875976562	-2146.188232421875	444.6917724609375	-431.7284240722656	-2239.628173828125	155.6637268066406	-235.6601104736328	-2067.224609375	68.14281463623047	-268.8735046386719	-2308.5634765625	144.0339660644531	-290.1417846679688	-2303.98974609375	108.7819213867188	-315.6528625488281	-2313.9765625	123.7729187011719	-260.4455261230469	-2216.3671875	483.7095947265625	-401.6502380371094
42	0.205	-1890.02880859375	1408.453002929688	-489.4624328613281	-1829.137939453125	1392.87353515625	-189.3679809570312	-1937.476440429688	960.242919921875	-478.7178039550781	-1897.935791015625	962.9544677734376	-198.4434814453125	-1891.083740234375	909.5208740234376	-451.5745849609375	-2166.406982421875	480.550048828125	-373.600830078125	-1874.017944335938	921.7850952148438	-216.1746978759766	-2022.086181640625	835.9393310546875	-487.9866638183594	-2024.124755859375	878.2198486328125	-171.33984375	-2052.50146484375	973.4614868164062	-335.9400939941406	-1825.427001953125	670.0894165039062	-503.2991027832031	-1962.243041992188	513.85498046875	-455.1120300292969	-1886.98193359375	627.4013061523438	-477.9999389648438	-1760.291870117188	594.8779296875	-484.9658203125	-2136.410400390625	80.69652557373047	-204.408447265625	-1867.361083984375	537.3651733398438	-474.463134765625	-1824.16796875	551.6719360351562	-459.9811401367188	-1909.59033203125	625.8458251953125	-171.7116546630859	-2087.9658203125	233.033203125	-397.5294494628906	-1985.158325195312	637.04833984375	-167.074951171875	-1918.826171875	528.9581909179688	-204.4526214599609	-2001.138793945312	537.4920043945312	-190.1720275878906	-1762.889404296875	523.9820556640625	-479.4438781738281	-1990.598754882812	461.8585510253906	-202.7534790039062	-1845.144653320312	458.5848999023438	-466.3263854980469	-1943.467163085938	435.72607421875	-447.8520202636719	-2026.944580078125	342.3761291503906	-204.3709869384766	-2123.24072265625	293.7306213378906	-458.6382446289062	-2097.926513671875	390.0511169433594	-193.9209136962891	-2183.755126953125	461.1760559082031	-344.9185485839844	-2092.490966796875	263.255859375	-222.717529296875	-2153.345458984375	312.7661743164062	-209.5439910888672	-2116.24951171875	434.5728149414062	-431.7328796386719	-2236.278076171875	161.2910461425781	-235.6597595214844	-2067.3505859375	67.97816467285156	-268.6846618652344	-2304.82958984375	150.8802947998047	-289.2552490234375	-2301.14794921875	115.4588775634766	-315.0624084472656	-2310.430908203125	129.9810180664062	-259.8771362304688	-2188.753173828125	470.1486206054688	-402.3840637207031
